<svg xmlns="http://www.w3.org/2000/svg" width="800" height="800" viewBox="0 0 292.299 292.299"
  xmlns:v="https://vecta.io/nano">
  <path
    d="M153.699 292.138C68.95 292.138 0 223.185 0 138.439 0 79.742 32.675 27.002 85.28.807c2.369-1.174 5.215-.718 7.077 1.144s2.345 4.711 1.183 7.074C83.941 28.527 79.077 49.496 79.077 71.33c0 77.972 63.432 141.407 141.395 141.407 22.08 0 43.247-4.978 62.942-14.777 2.366-1.177 5.213-.721 7.074 1.141 1.873 1.867 2.342 4.714 1.177 7.073-26.055 53.021-78.927 85.964-137.966 85.964z"
    fill="#fff" />
</svg>