<?xml version="1.0" encoding="UTF-8" standalone="no"?>
<!-- Uploaded to: SVG Repo, www.svgrepo.com, Generator: SVG Repo Mixer Tools -->

<svg
   fill="#000000"
   version="1.1"
   id="Capa_1"
   width="800px"
   height="800px"
   viewBox="0 0 292.299 292.299"
   xml:space="preserve"
   sodipodi:docname="moon.svg"
   inkscape:version="1.2.2 (b0a8486541, 2022-12-01)"
   xmlns:inkscape="http://www.inkscape.org/namespaces/inkscape"
   xmlns:sodipodi="http://sodipodi.sourceforge.net/DTD/sodipodi-0.dtd"
   xmlns="http://www.w3.org/2000/svg"
   xmlns:svg="http://www.w3.org/2000/svg"><defs
   id="defs857" /><sodipodi:namedview
   id="namedview855"
   pagecolor="#505050"
   bordercolor="#eeeeee"
   borderopacity="1"
   inkscape:showpageshadow="0"
   inkscape:pageopacity="0"
   inkscape:pagecheckerboard="0"
   inkscape:deskcolor="#505050"
   showgrid="false"
   inkscape:zoom="1.08875"
   inkscape:cx="239.72445"
   inkscape:cy="400.91848"
   inkscape:window-width="1920"
   inkscape:window-height="1050"
   inkscape:window-x="0"
   inkscape:window-y="18"
   inkscape:window-maximized="1"
   inkscape:current-layer="Capa_1" />
<g
   id="g852"
   style="fill:#ffffff;fill-opacity:1">
	<g
   id="g850"
   style="fill:#ffffff;fill-opacity:1">
		<path
   d="M153.699,292.138C68.95,292.138,0,223.185,0,138.439C0,79.742,32.675,27.002,85.28,0.807    c2.369-1.174,5.215-0.718,7.077,1.144c1.864,1.864,2.345,4.711,1.183,7.074C83.941,28.527,79.077,49.496,79.077,71.33    c0,77.972,63.432,141.407,141.395,141.407c22.08,0,43.247-4.978,62.942-14.777c2.366-1.177,5.213-0.721,7.074,1.141    c1.873,1.867,2.342,4.714,1.177,7.073C265.61,259.195,212.738,292.138,153.699,292.138z"
   id="path848"
   style="fill:#ffffff;fill-opacity:1" />
	</g>
</g>
</svg>
