<?xml version="1.0" encoding="UTF-8"?>
<svg clip-rule="evenodd" fill-rule="evenodd" version="1.1" viewBox="0 0 91.667 110" xmlns="http://www.w3.org/2000/svg">
  <path
    d="m4.5834 110h87.084v-105.42h-4.5834v100.83h-82.5zm77.917-110h-82.5v100.83h82.5zm-4.5834 4.5834h-73.334v91.667h73.334zm-9.1667 73.334h-55v4.5834h55zm0-13.75h-55v4.5834h55zm0-13.75h-55v4.5834h55zm-33.678-17.705 4.345 1.375c-0.66459 2.4246-1.7738 4.2258-3.3229 5.3992-1.5492 1.1779-3.5154 1.7646-5.8988 1.7646-2.9471 0-5.3671-1.0083-7.2646-3.0204-1.8975-2.0121-2.8463-4.7667-2.8463-8.2592 0-3.6942 0.95334-6.5634 2.86-8.6075 1.9067-2.0442 4.4138-3.0663 7.5259-3.0663 2.7133 0 4.9179 0.80209 6.6138 2.4063 1.0129 0.94875 1.7692 2.3146 2.2733 4.0883l-4.4367 1.0588c-0.26125-1.1504-0.81125-2.0579-1.6408-2.7225-0.83417-0.66917-1.8471-0.99917-3.0388-0.99917-1.6454 0-2.9792 0.59125-4.0058 1.7692-1.0221 1.1825-1.5354 3.0938-1.5354 5.7384 0 2.8096 0.50417 4.8079 1.5171 5.995 1.0083 1.1917 2.3192 1.7875 3.9325 1.7875 1.1917 0 2.2183-0.37583 3.0754-1.1367 0.85709-0.75625 1.4758-1.9479 1.8471-3.5704zm13.855 8.1584-7.9338-22.193h4.8584l5.6192 16.427 5.4359-16.427h4.7529l-7.9475 22.193z"
    stroke-width="4.5834" />
</svg>
